<svg xmlns="http://www.w3.org/2000/svg" viewBox="0 0 500 500"><g id="freepik--background-complete--inject-15"><rect y="382.4" width="500" height="0.25" style="fill:#ebebeb"></rect><rect x="52.46" y="398.49" width="33.12" height="0.25" style="fill:#ebebeb"></rect><rect x="135.33" y="401.21" width="44.5" height="0.25" style="fill:#ebebeb"></rect><rect x="86.58" y="389.21" width="70.42" height="0.25" style="fill:#ebebeb"></rect><rect x="437.21" y="390.89" width="12.69" height="0.25" style="fill:#ebebeb"></rect><rect x="391.47" y="390.89" width="36.83" height="0.25" style="fill:#ebebeb"></rect><rect x="277.21" y="395.11" width="31.12" height="0.25" style="fill:#ebebeb"></rect><path d="M237,337.8H43.91a5.71,5.71,0,0,1-5.7-5.71V60.66A5.71,5.71,0,0,1,43.91,55H237a5.71,5.71,0,0,1,5.71,5.71V332.09A5.71,5.71,0,0,1,237,337.8ZM43.91,55.2a5.46,5.46,0,0,0-5.45,5.46V332.09a5.46,5.46,0,0,0,5.45,5.46H237a5.47,5.47,0,0,0,5.46-5.46V60.66A5.47,5.47,0,0,0,237,55.2Z" style="fill:#ebebeb"></path><path d="M453.31,337.8H260.21a5.72,5.72,0,0,1-5.71-5.71V60.66A5.72,5.72,0,0,1,260.21,55h193.1A5.71,5.71,0,0,1,459,60.66V332.09A5.71,5.71,0,0,1,453.31,337.8ZM260.21,55.2a5.47,5.47,0,0,0-5.46,5.46V332.09a5.47,5.47,0,0,0,5.46,5.46h193.1a5.47,5.47,0,0,0,5.46-5.46V60.66a5.47,5.47,0,0,0-5.46-5.46Z" style="fill:#ebebeb"></path><rect x="105.77" y="89.2" width="291.89" height="116.6" transform="translate(503.44 295) rotate(180)" style="fill:#ebebeb"></rect><rect x="102.33" y="89.2" width="3.44" height="116.6" style="fill:#e0e0e0"></rect><rect x="116.28" y="99.71" width="270.88" height="95.59" transform="translate(503.44 295) rotate(180)" style="fill:#fff"></rect><polygon points="297.79 195.29 313.02 195.29 356.83 99.71 341.61 99.71 297.79 195.29" style="fill:#f5f5f5"></polygon><polygon points="276.24 195.29 291.46 195.29 335.28 99.71 320.05 99.71 276.24 195.29" style="fill:#f5f5f5"></polygon><polygon points="135.11 195.29 150.34 195.29 194.16 99.71 178.93 99.71 135.11 195.29" style="fill:#f5f5f5"></polygon><polygon points="426.37 382.4 344.27 382.4 336.99 246.66 419.08 246.66 426.37 382.4" style="fill:#e0e0e0"></polygon><polygon points="428.88 382.4 346.78 382.4 339.5 246.66 421.59 246.66 428.88 382.4" style="fill:#f0f0f0"></polygon><path d="M383.88,368.4h-3a2.15,2.15,0,0,1-2.15-2.23l3.63-103.42a2.16,2.16,0,0,1,2.16-2.08h3a2.16,2.16,0,0,1,2.16,2.23L386,366.32A2.15,2.15,0,0,1,383.88,368.4Z" style="fill:#fafafa"></path><path d="M403.27,368.4h-3a2.16,2.16,0,0,1-2.15-2.23l3.63-103.42a2.17,2.17,0,0,1,2.16-2.08h3a2.16,2.16,0,0,1,2.16,2.23l-3.64,103.42A2.15,2.15,0,0,1,403.27,368.4Z" style="fill:#fafafa"></path><path d="M364.48,368.4h-3a2.17,2.17,0,0,1-2.16-2.23L363,262.75a2.15,2.15,0,0,1,2.15-2.08h3a2.15,2.15,0,0,1,2.15,2.23l-3.63,103.42A2.16,2.16,0,0,1,364.48,368.4Z" style="fill:#fafafa"></path><rect x="71.05" y="270.56" width="18.51" height="106.22" style="fill:#f0f0f0"></rect><rect x="74.6" y="376.79" width="203.91" height="5.61" style="fill:#f0f0f0"></rect><rect x="89.56" y="270.56" width="192.5" height="106.22" transform="translate(371.62 647.35) rotate(180)" style="fill:#f5f5f5"></rect><rect x="68.72" y="265.67" width="18.92" height="4.9" style="fill:#f0f0f0"></rect><rect x="87.64" y="265.67" width="196.75" height="4.9" transform="translate(372.03 536.23) rotate(180)" style="fill:#fafafa"></rect><path d="M275.41,311.15H96.21v-30.3h179.2Zm-178-1.25h176.7V282.09H97.46Z" style="fill:#e0e0e0"></path><path d="M275.41,366.5H96.21V318.57h179.2Zm-178-1.24h176.7V319.82H97.46Z" style="fill:#e0e0e0"></path><rect x="120.35" y="294" width="130.91" height="3.98" rx="1.64" style="fill:#e0e0e0"></rect><rect x="120.35" y="331.73" width="130.91" height="3.98" rx="1.64" style="fill:#e0e0e0"></rect><path d="M96.83,250.92c0,8.14,9.33,14.75,20.83,14.75s20.84-6.61,20.84-14.75Z" style="fill:#ebebeb"></path><path d="M175.85,260.67c0,2.76,9.32,5,20.83,5s20.83-2.24,20.83-5Z" style="fill:#f5f5f5"></path><path d="M175.85,257c0,2.76,9.32,5,20.83,5s20.83-2.24,20.83-5Z" style="fill:#f5f5f5"></path><path d="M223.74,260.67c0,2.76,9.32,5,20.83,5s20.83-2.24,20.83-5Z" style="fill:#f5f5f5"></path><path d="M223.74,257c0,2.76,9.32,5,20.83,5s20.83-2.24,20.83-5Z" style="fill:#f5f5f5"></path></g><g id="freepik--Shadow--inject-15"><ellipse id="freepik--path--inject-15" cx="250" cy="416.24" rx="193.89" ry="11.32" style="fill:#f5f5f5"></ellipse></g><g id="freepik--character-1--inject-15"><polygon points="189.45 407.78 197.27 407.78 198.87 389.67 191.05 389.67 189.45 407.78" style="fill:#ffb573"></polygon><path d="M198.54,406.87H189a.73.73,0,0,0-.69.54l-1.79,6.95a1.1,1.1,0,0,0,1.09,1.39c3.07-.05,5.32-.23,9.18-.23,2.38,0,9.53.24,12.82.24s3.82-3.24,2.49-3.54c-6-1.31-10.45-3.13-12.32-4.87A1.82,1.82,0,0,0,198.54,406.87Z" style="fill:#263238"></path><polygon points="191.05 389.68 198.87 389.68 198.04 399.01 190.22 399.01 191.05 389.68" style="opacity:0.2"></polygon><path d="M205.68,227.71s5,60.69,3.6,83.6c-1.58,25.08-7.58,85.89-7.58,85.89H187.38s1.25-56.63.52-81c-.82-27.81-9.21-88.11-9.21-88.11Z" style="fill:#263238"></path><polygon points="202.94 397.51 186.07 397.51 186.25 392.47 204.14 392.14 202.94 397.51" style="fill:#407BFF"></polygon><path d="M201.08,408.24a2.43,2.43,0,0,0,1.52-.4,1.11,1.11,0,0,0,.41-1,.54.54,0,0,0-.29-.52c-.86-.45-3.43,1.1-3.72,1.28a.19.19,0,0,0-.09.19.18.18,0,0,0,.13.15A9.13,9.13,0,0,0,201.08,408.24Zm1.22-1.62a.6.6,0,0,1,.24.05s.1.07.1.22a.79.79,0,0,1-.27.67,3.77,3.77,0,0,1-2.78.14A7.78,7.78,0,0,1,202.3,406.62Z" style="fill:#407BFF"></path><path d="M199.08,408a.15.15,0,0,0,.09,0c.83-.44,2.45-2.15,2.32-3a.58.58,0,0,0-.57-.49,1.08,1.08,0,0,0-.8.24c-.93.74-1.2,3-1.21,3.09a.17.17,0,0,0,.07.17A.19.19,0,0,0,199.08,408Zm1.7-3.17h.08c.24,0,.26.14.26.19.08.51-1,1.81-1.79,2.42a4.63,4.63,0,0,1,1-2.45A.7.7,0,0,1,200.78,404.79Z" style="fill:#407BFF"></path><polygon points="130.71 394.05 138.02 396.56 146.28 380.04 138.97 377.53 130.71 394.05" style="fill:#ffb573"></polygon><path d="M139.25,396.87l-7.61-5.47a.68.68,0,0,0-.85.06l-5.43,4.8a1.15,1.15,0,0,0,.07,1.8c2.48,1.71,4.38,2.85,7.46,5.07,1.9,1.36,7.47,5.68,10.09,7.56s4.93-.52,4-1.54c-4-4.53-6.54-8.63-7-11.15A1.79,1.79,0,0,0,139.25,396.87Z" style="fill:#263238"></path><path d="M194.92,161.89l1.9-.42,2-.47c1.33-.33,2.66-.69,4-1.07,2.64-.77,5.24-1.62,7.75-2.59a58.83,58.83,0,0,0,7.18-3.29,29.68,29.68,0,0,0,5.94-4.2l.6-.58c.16-.19.32-.35.49-.55.34-.42.7-.88,1.05-1.4.72-1,1.44-2.14,2.12-3.32,1.35-2.37,2.69-4.87,4-7.43,2.54-5.1,5-10.4,7.44-15.63l5.59,1.8A145,145,0,0,1,240.17,140c-1,2.84-2,5.69-3.34,8.54-.65,1.42-1.35,2.85-2.19,4.32-.42.73-.89,1.47-1.42,2.23-.26.38-.59.78-.88,1.16l-.89,1a35.7,35.7,0,0,1-3.81,3.6,47.84,47.84,0,0,1-4.1,2.9,59.57,59.57,0,0,1-8.57,4.43,78.12,78.12,0,0,1-8.83,3.15q-2.23.66-4.5,1.2c-.75.19-1.51.37-2.28.53s-1.49.29-2.4.45Z" style="fill:#ffb573"></path><path d="M191,175.38c6,4.23,27.83-2.7,27.83-2.7l-3-19.29s-8.93,2.11-18.3,4.86C191.16,160.09,184.41,170.78,191,175.38Z" style="fill:#407BFF"></path><path d="M238.42,124.07l1.48-8.25,7.52,4.81a8.8,8.8,0,0,1-4.25,5.52Z" style="fill:#ffb573"></path><polygon points="242.02 111.13 247.84 109.05 247.43 120.63 239.9 115.82 242.02 111.13" style="fill:#ffb573"></polygon><polygon points="138.97 377.53 146.28 380.05 142.02 388.56 134.7 386.05 138.97 377.53" style="opacity:0.2"></polygon><path d="M163,160.28a173.31,173.31,0,0,1,2.56,26c.17,6.1.08,11.89-.14,17.15-.49,12.3-1.63,21.64-1.56,24.84l41.83-.52c9.8-44.08,1.13-67.58,1.13-67.58a79.52,79.52,0,0,0-9.84-1.81c-.7-.08-1.41-.15-2.14-.21a154.74,154.74,0,0,0-17.79.22c-1.12.07-2.26.17-3.37.28C168,159.2,163,160.28,163,160.28Z" style="fill:#407BFF"></path><path d="M177,158.33a154.74,154.74,0,0,1,17.79-.22c.72.06,1.44.13,2.14.21l.25,0c1,2.68,1.13,8.46-4.74,8.93-8,.64-15.44-4.59-18.81-8.66C174.77,158.5,175.92,158.4,177,158.33Z" style="fill:#fff"></path><path d="M172.44,172.12a34,34,0,0,1-6.83,17.75c0-1.19,0-2.4-.06-3.62-.13-4.58-.41-9.33-.91-14.14Z" style="opacity:0.2"></path><path d="M179.28,138.29c1,5.71,1.86,16.18-2.24,20a17.17,17.17,0,0,0,13.59,5.28c4.93-.16,5.25-3.61,4.2-5.5-6.35-1.44-6.07-6.18-4.85-10.64Z" style="fill:#ffb573"></path><path d="M183.64,142l6.33,5.43a18.77,18.77,0,0,0-.62,3.16c-2.43-.32-5.72-2.95-5.92-5.5A8.6,8.6,0,0,1,183.64,142Z" style="opacity:0.2"></path><path d="M200.94,122.28c4.78-2.39,2.59-9.72,2.59-9.72s-2.53-.06-5.29,3c1.25-3.78-.85-9.94-1.55-12.33-9.59,4.16-10.23,8.18-10.23,8.18s-2-3-3.88-3.17a8.1,8.1,0,0,0-3.58,9,12.27,12.27,0,0,0-5.17-1.62,9.94,9.94,0,0,0,.33,6.93,5.86,5.86,0,0,0-2.55,2.59,14.38,14.38,0,0,0,2.78,1.37c-.15,3,.49,7.14,2.65,9.48l22-10.28c3.72,1.61,5.38.45,5.38.45S203.56,123,200.94,122.28Z" style="fill:#263238"></path><path d="M178.8,129.69c.29,7.74.07,12.3,3.89,16.23,5.75,5.9,15.39,2.24,17.42-5.52,1.83-7,1-18.46-6.47-21.45S178.5,122,178.8,129.69Z" style="fill:#ffb573"></path><path d="M185.94,121c.5,4.06-5,7.06-3.72,13.06a17.3,17.3,0,0,1-3.43,3.75l-2.23-6.11,1.11-11.2,7.44-.63Z" style="fill:#263238"></path><path d="M180.78,120.5c5.83,3.78,15.61,3.11,18.33,2.17-1.36-4.89-6.83-6.28-6.83-6.28S183.11,115.56,180.78,120.5Z" style="fill:#263238"></path><path d="M192.8,140.37h0a5.48,5.48,0,0,1-4.66-2.25.22.22,0,0,1,.07-.28.19.19,0,0,1,.27.06,5.21,5.21,0,0,0,4.33,2.07.19.19,0,0,1,.19.2A.2.2,0,0,1,192.8,140.37Z" style="fill:#263238"></path><path d="M175.1,138.27a7,7,0,0,0,4.52,3.2c2.51.53,3.69-1.78,2.92-4.08-.7-2.07-2.84-4.83-5.33-4.32A3.39,3.39,0,0,0,175.1,138.27Z" style="fill:#ffb573"></path><path d="M185.42,246.66,182,253.39c1.57,12.72,3.37,28.32,4.57,42.11C189.3,281.63,191.07,255,185.42,246.66Z" style="opacity:0.2"></path><path d="M192.37,227.88s-9.72,55.46-14.06,78.1C173.55,330.77,146,388,146,388l-13.39-4.6s22.13-57,24.53-81.46c2.73-27.81,6.67-73.72,6.67-73.72Z" style="fill:#263238"></path><polygon points="147.1 388.71 131.32 383.29 133.11 378.51 149.95 383.95 147.1 388.71" style="fill:#407BFF"></polygon><path d="M190.5,131.71c0,.63.31,1.14.72,1.13s.76-.52.77-1.15-.3-1.14-.72-1.13S190.51,131.08,190.5,131.71Z" style="fill:#263238"></path><path d="M197.63,131.62c0,.63.31,1.14.72,1.13s.76-.52.78-1.15-.31-1.13-.73-1.13S197.65,131,197.63,131.62Z" style="fill:#263238"></path><path d="M195.36,132a21.84,21.84,0,0,0,2.88,5.36c-1.14,1.06-3.1.45-3.1.45Z" style="fill:#ed893e"></path><path d="M188.34,129.43a.37.37,0,0,0,.36-.14,3.08,3.08,0,0,1,2.41-1.27.38.38,0,0,0,.4-.35.35.35,0,0,0-.33-.39,3.84,3.84,0,0,0-3.06,1.57.38.38,0,0,0,.06.52A.44.44,0,0,0,188.34,129.43Z" style="fill:#263238"></path><path d="M200.75,129.13a.35.35,0,0,0,.22,0,.38.38,0,0,0,.19-.49,3.49,3.49,0,0,0-2.62-2,.38.38,0,0,0-.42.32.36.36,0,0,0,.31.41h0a2.81,2.81,0,0,1,2,1.65A.35.35,0,0,0,200.75,129.13Z" style="fill:#263238"></path><path d="M140.49,399.48a2.3,2.3,0,0,0,1.44.53,1.15,1.15,0,0,0,.9-.58.58.58,0,0,0,.06-.61c-.42-.86-3.37-1-3.7-1.06a.19.19,0,0,0-.18.11.16.16,0,0,0,0,.2A8.59,8.59,0,0,0,140.49,399.48Zm1.9-.66a.46.46,0,0,1,.17.17.25.25,0,0,1,0,.25.78.78,0,0,1-.61.4c-.55.05-1.4-.49-2.3-1.47A7.14,7.14,0,0,1,142.39,398.82Z" style="fill:#407BFF"></path><path d="M139.06,398.1a.11.11,0,0,0,.08,0c.91.11,3.2-.4,3.59-1.21a.59.59,0,0,0-.18-.73,1,1,0,0,0-.77-.26c-1.17.09-2.68,1.83-2.75,1.9a.19.19,0,0,0,0,.19A.16.16,0,0,0,139.06,398.1Zm3.17-1.69.06,0c.18.17.13.27.11.31-.23.48-1.81,1-2.82,1a4.69,4.69,0,0,1,2.21-1.48A.63.63,0,0,1,142.23,396.41Z" style="fill:#407BFF"></path><path d="M170.38,172.29l-2.46,3c-.83,1-1.65,2.05-2.46,3.1q-2.43,3.12-4.74,6.32c-1.51,2.14-3,4.3-4.34,6.48s-2.63,4.4-3.68,6.62l-.21.42-.08.19a2.59,2.59,0,0,0-.18.47,11,11,0,0,0-.32,1.38,27.43,27.43,0,0,0-.36,3.47c-.1,2.47-.07,5.1.07,7.74.26,5.28.74,10.74,1.27,16.1l-5.72,1.33a113.84,113.84,0,0,1-4.45-16.36,72.55,72.55,0,0,1-1.14-8.69,39.68,39.68,0,0,1,0-4.76,23.49,23.49,0,0,1,.37-2.68c.12-.49.21-.95.4-1.51l.26-.78.21-.52A83.21,83.21,0,0,1,151,178.06c1.58-2.4,3.24-4.72,5-7,.87-1.13,1.76-2.24,2.67-3.35s1.81-2.16,2.85-3.32Z" style="fill:#ffb573"></path><path d="M163,160.28c-7.44,1.06-15.51,18.58-15.51,18.58l14.08,13.32s5.84-8.81,10.65-17.36C177.45,165.51,172,159,163,160.28Z" style="fill:#407BFF"></path><path d="M152.21,225.89l4.71,6.23-9.79,2.37s-2.8-6.23.4-8.2Z" style="fill:#ffb573"></path><polygon points="156.76 238.65 148.59 240.23 147.13 234.49 156.92 232.12 156.76 238.65" style="fill:#ffb573"></polygon></g><g id="freepik--character-2--inject-15"><polygon points="379.49 389.66 372.11 392.82 361.88 376.99 369.25 373.82 379.49 389.66" style="fill:#ffc3bd"></polygon><polygon points="369.26 373.82 361.88 376.99 367.16 385.15 374.54 381.99 369.26 373.82" style="opacity:0.2"></polygon><path d="M311.75,230.21s13,65.44,19.51,88C338.39,343,363,384.92,363,384.92l13.51-5.8s-15-33.8-21-58.2c-6.79-27.78-16.18-93-16.18-93Z" style="fill:#407BFF"></path><path d="M322.51,249c1.67,18.19,2.07,31,2.76,45.08-3.42-14.94-7.07-32.26-9.72-45.08Z" style="opacity:0.2"></path><polygon points="325.62 408.01 317.59 407.89 315.75 389.27 323.77 389.39 325.62 408.01" style="fill:#ffc3bd"></polygon><polygon points="315.75 389.27 316.7 398.87 324.73 399 323.78 389.4 315.75 389.27" style="opacity:0.2"></polygon><path d="M313.72,397l13.59.21s-5.36-52.81-7.12-77.76c-.54-7.59-.29-18.32.35-29.87.8-14.56,1.33-20.39,2.43-38.79.78-13.12,1.73-21.62,1.73-21.62l-28.13,2.31s-1.1,63.71,2.09,88C302,344.7,313.72,397,313.72,397Z" style="fill:#407BFF"></path><path d="M317.66,407l8.77.14a.68.68,0,0,1,.67.55l1.48,7.16a1.16,1.16,0,0,1-1.18,1.41c-3.16-.1-7.73-.36-11.7-.42-4.65-.07-5.18.12-10.63,0-3.29-.05-4.15-3.39-2.77-3.67,6.3-1.28,7.94-1.35,13.42-4.61A3.77,3.77,0,0,1,317.66,407Z" style="fill:#263238"></path><polygon points="312.01 397.26 328.2 397.51 328.29 392.28 310.96 391.72 312.01 397.26" style="fill:#407BFF"></polygon><polygon points="312.01 397.26 328.2 397.51 328.29 392.28 310.96 391.72 312.01 397.26" style="opacity:0.30000000000000004"></polygon><path d="M316.86,408.06a.24.24,0,0,0,.13-.16.19.19,0,0,0-.1-.19c-.36-.2-3.56-1.88-4.55-1.36a.62.62,0,0,0-.32.51h0a1.09,1.09,0,0,0,.34.93c.87.79,3.18.51,4.47.27Zm-4.27-1.4c.61-.2,2.35.49,3.61,1.12-1.77.27-3.09.17-3.58-.27a.72.72,0,0,1-.22-.62.22.22,0,0,1,.12-.2Z" style="fill:#407BFF"></path><path d="M316.86,408.06l.05,0a.21.21,0,0,0,.08-.17c0-.09-.19-2.26-1.2-3.11a1.37,1.37,0,0,0-1.05-.34h0c-.52,0-.68.3-.72.52-.16.9,1.74,2.67,2.7,3.12A.22.22,0,0,0,316.86,408.06Zm-2.28-3.24.19,0h0a1,1,0,0,1,.77.26,4.38,4.38,0,0,1,1,2.49c-1-.61-2.26-2-2.16-2.54C314.4,405,314.42,404.87,314.58,404.82Zm.18-.22h0Z" style="fill:#407BFF"></path><path d="M370.43,392.45l8.41-5a.7.7,0,0,1,.87.12l5,5.32a1.18,1.18,0,0,1-.28,1.83c-2.73,1.56-4.8,2.58-8.2,4.61-2.1,1.25-6.94,4.37-9.83,6.09s-4.92-.85-4-1.87c4.36-4.6,6.32-7.46,7.11-10A1.94,1.94,0,0,1,370.43,392.45Z" style="fill:#263238"></path><path d="M252,124.57l1.56-7-8.29-2.41s-2.52,6.77,2.35,10Z" style="fill:#ffc3bd"></path><polygon points="252.48 110.79 246.04 107.33 245.25 115.2 253.54 117.61 252.48 110.79" style="fill:#ffc3bd"></polygon><path d="M292.32,175.67c-3.08-.86-5.87-1.81-8.76-2.85s-5.69-2.17-8.5-3.41-5.59-2.54-8.35-4c-1.38-.7-2.75-1.5-4.12-2.28l-2-1.25-.51-.31-.76-.5q-.75-.53-1.41-1.08a21.49,21.49,0,0,1-4.05-4.68,34.29,34.29,0,0,1-2.56-4.72,54.43,54.43,0,0,1-3.08-9.3,84.07,84.07,0,0,1-2.27-18.44l7.37-1a158.6,158.6,0,0,0,5.51,16,52.2,52.2,0,0,0,3.52,7.06,22.3,22.3,0,0,0,2,2.83,9.87,9.87,0,0,0,1.93,1.77,4,4,0,0,0,.37.22.55.55,0,0,1,.18.08l.46.21,1.82.88c1.26.56,2.5,1.13,3.78,1.67,2.55,1.09,5.17,2.1,7.81,3.1s5.31,2,8,2.88l8,2.73Z" style="fill:#407BFF"></path><path d="M318.84,137c-.58,5.95-.68,16.77,3.79,20.27-2.87,3.47-6.66,7.52-13.58,8.44s-6.17-4-4.58-6.67c6.37-2.19,5.73-7,4.15-11.44Z" style="fill:#ffc3bd"></path><path d="M300.7,131.22c-.07.65-.46,1.14-.88,1.1s-.71-.6-.65-1.25.46-1.13.88-1.09S300.76,130.58,300.7,131.22Z" style="fill:#263238"></path><path d="M300.47,131.85a23,23,0,0,1-3.62,5.21,3.71,3.71,0,0,0,3,.88Z" style="fill:#ed847e"></path><path d="M302.42,128.81a.37.37,0,0,1-.23-.27,3,3,0,0,0-1.71-2.15.38.38,0,1,1,.26-.72,3.81,3.81,0,0,1,2.19,2.7.38.38,0,0,1-.29.45A.33.33,0,0,1,302.42,128.81Z" style="fill:#263238"></path><path d="M322.7,131.74c-1.55,7.82-2.06,12.47-6.58,16-6.81,5.28-16.05.36-16.87-7.76-.74-7.31,1.91-18.86,10.05-21A10.87,10.87,0,0,1,322.7,131.74Z" style="fill:#ffc3bd"></path><path d="M306.83,133.92c-2.25-2.59-1.41-8.17,0-10.84-1.66,1.06-7.31.68-7.34-3.75-.05-6.49,10.86-8,16.84-6.86,6.89,1.36,13.07,7.82,15.45,5.59,2.45,4.32-1.84,5.83-1.84,5.83s4.26,10.75-11.33,21.28a17.77,17.77,0,0,0-6.42.27,1.85,1.85,0,0,1-1.29-.53C309.32,143.33,305,138.45,306.83,133.92Z" style="fill:#263238"></path><path d="M329.35,123.65s2.94.62,3.94-1.27C333,125.08,331.35,125.1,329.35,123.65Z" style="fill:#263238"></path><path d="M312,136.4a7.56,7.56,0,0,1-4.56,3.56c-2.56.68-3.82-1.62-3.08-4,.66-2.17,2.8-5.13,5.36-4.76S313.17,134.26,312,136.4Z" style="fill:#ffc3bd"></path><path d="M342.53,164.1c1.15,1.1,2.09,2.09,3.08,3.15s1.93,2.11,2.84,3.2c1.85,2.15,3.61,4.38,5.33,6.64s3.36,4.58,4.91,7L360,186c.49.72.89,1.46,1.31,2.19a35.35,35.35,0,0,1,2.05,4.5,46.4,46.4,0,0,1,2.43,9,60.46,60.46,0,0,1,.85,8.92,72.54,72.54,0,0,1-.26,8.74,68.08,68.08,0,0,1-1.28,8.66l-7.39-.81c-.13-2.49-.32-5.21-.61-7.79s-.67-5.18-1.14-7.7a52.84,52.84,0,0,0-4.41-13.94,28.68,28.68,0,0,0-1.67-2.84c-.31-.43-.6-.88-.92-1.27-.18-.21-.29-.37-.51-.62l-.65-.76c-1.76-2-3.5-4-5.29-6s-3.56-4-5.34-5.91l-5.25-5.75Z" style="fill:#407BFF"></path><path d="M322.74,170.45c-1.28,5.79,16.49,16.33,16.49,16.33l14.06-12a104.89,104.89,0,0,0-12-14.29C334,153.23,324.82,161.07,322.74,170.45Z" style="fill:#263238"></path><path d="M335.09,176.52c-2.54-1.39-2.93,1.78-2.54,5.81,3.54,2.59,6.67,4.45,6.67,4.45l1.79-1.53C339.6,181.56,337.64,177.91,335.09,176.52Z" style="opacity:0.2"></path><path d="M357.55,225.94l-3.7,4.94,8.89,3.67s2.32-4,1.83-7a3,3,0,0,0-2.29-2.35l-1.62-.38A3,3,0,0,0,357.55,225.94Z" style="fill:#ffc3bd"></path><polygon points="352.06 238.81 360.44 240.67 362.74 234.55 353.85 230.88 352.06 238.81" style="fill:#ffc3bd"></polygon><path d="M338.3,161.76c-3.64,30.74,6.16,68.68,6.4,75-6.28.52-37.32,3.38-50.21,4.43-7.48-54.73-.59-80.69-.59-80.69s2.67-.86,6.34-1.69c1.15-.26,2.4-.51,3.7-.74.71-.13,1.45-.24,2.19-.35a160.91,160.91,0,0,1,18.23-.82c1.15,0,2.33,0,3.47.09s2.09.12,3.07.19c1.51.12,2.91.26,4.1.39A3.75,3.75,0,0,1,338.3,161.76Z" style="fill:#263238"></path><path d="M291.76,175.27c-.15,1.57-.27,3.28-.37,5.12,2.84-.28,6.29-1,7.75-2.64C300.92,175.67,295.48,175.3,291.76,175.27Z" style="opacity:0.2"></path><path d="M302.47,178.07c-6.87,3.4-19.88-2.4-19.88-2.4l.21-20.17s14.05,2.26,24,2.16C317,157.56,310,174.33,302.47,178.07Z" style="fill:#263238"></path><polygon points="361.51 385.9 377.42 379.08 375.38 374.32 357.33 380.26 361.51 385.9" style="fill:#407BFF"></polygon><polygon points="361.51 385.9 377.42 379.08 375.38 374.32 357.33 380.26 361.51 385.9" style="opacity:0.30000000000000004"></polygon><path d="M368.87,395a9.44,9.44,0,0,0,1.66-1.32.18.18,0,0,0,0-.2.17.17,0,0,0-.17-.12c-.35,0-3.38-.05-3.91.79a.6.6,0,0,0,0,.63,1.15,1.15,0,0,0,.85.66A2.36,2.36,0,0,0,368.87,395Zm1.05-1.27c-1,.94-2,1.43-2.52,1.34a.78.78,0,0,1-.58-.46.22.22,0,0,1,0-.25C367.08,393.93,368.7,393.76,369.92,393.74Z" style="fill:#407BFF"></path><path d="M370.49,393.72a.3.3,0,0,0,.08-.08.19.19,0,0,0,0-.19c-.06-.08-1.41-2-2.6-2.15a1,1,0,0,0-.82.2h0a.62.62,0,0,0-.26.74c.31.86,2.59,1.54,3.53,1.51Zm-3.06-2a.74.74,0,0,1,.47-.08c.76.12,1.67,1.14,2.1,1.68-1-.12-2.59-.74-2.78-1.24,0-.05-.05-.16.14-.31h0Z" style="fill:#407BFF"></path></g><g id="freepik--Lines--inject-15"><rect x="246.08" y="76.89" width="1.17" height="5.67" style="fill:#407BFF;opacity:0.9"></rect><rect x="246.08" y="85.33" width="1.17" height="14.33" style="fill:#407BFF;opacity:0.9"></rect><rect x="252.48" y="102.1" width="8.67" height="1.17" transform="translate(2.54 211.52) rotate(-44.97)" style="fill:#407BFF;opacity:0.9"></rect><rect x="260.84" y="112.25" width="9.05" height="1.17" style="fill:#407BFF;opacity:0.9"></rect><rect x="234.65" y="95.28" width="1.17" height="12.27" transform="translate(-2.81 196.04) rotate(-45)" style="fill:#407BFF;opacity:0.9"></rect><rect x="228.44" y="112.25" width="4.05" height="1.17" style="fill:#407BFF;opacity:0.9"></rect></g></svg>
